<svg fill="none" xmlns="http://www.w3.org/2000/svg" viewBox="42.27 14.83 426.73 134.32"> <rect x="159" y="66" width="310" height="83" rx="41.5" fill="#F2C110"/> <path d="M300.75 98.9893L298.906 100.208C297.781 98.5413 296.312 97.2288 294.5 96.2705C292.708 95.2913 290.76 94.8018 288.656 94.8018C285.24 94.8018 282.323 96.0101 279.906 98.4268C277.49 100.843 276.281 103.76 276.281 107.177C276.281 110.593 277.49 113.51 279.906 115.927C282.323 118.343 285.24 119.552 288.656 119.552C290.76 119.552 292.708 119.062 294.5 118.083C296.312 117.104 297.781 115.781 298.906 114.114L300.719 115.427C299.385 117.385 297.656 118.937 295.531 120.083C293.406 121.229 291.115 121.802 288.656 121.802C286.677 121.802 284.781 121.416 282.969 120.646C281.177 119.875 279.625 118.833 278.312 117.521C277 116.208 275.958 114.656 275.188 112.864C274.417 111.052 274.031 109.156 274.031 107.177C274.031 105.198 274.417 103.312 275.188 101.521C275.958 99.708 277 98.1455 278.312 96.833C279.625 95.5205 281.177 94.4788 282.969 93.708C284.781 92.9372 286.677 92.5518 288.656 92.5518C291.135 92.5518 293.438 93.1351 295.562 94.3018C297.688 95.4476 299.417 97.0101 300.75 98.9893ZM304.469 96.4268L302.594 97.6455C301.052 95.3955 299.052 93.6143 296.594 92.3018C294.156 90.9684 291.51 90.3018 288.656 90.3018C285.594 90.3018 282.771 91.0622 280.188 92.583C277.604 94.083 275.552 96.1247 274.031 98.708C272.531 101.291 271.781 104.114 271.781 107.177C271.781 110.239 272.531 113.062 274.031 115.646C275.552 118.229 277.604 120.281 280.188 121.802C282.771 123.302 285.594 124.052 288.656 124.052C291.51 124.052 294.167 123.385 296.625 122.052C299.083 120.718 301.083 118.916 302.625 116.646L304.469 117.927C302.719 120.51 300.448 122.552 297.656 124.052C294.885 125.552 291.885 126.302 288.656 126.302C285.198 126.302 282 125.448 279.062 123.739C276.125 122.031 273.802 119.708 272.094 116.771C270.385 113.833 269.531 110.635 269.531 107.177C269.531 103.718 270.385 100.521 272.094 97.583C273.802 94.6455 276.125 92.3226 279.062 90.6143C282 88.9059 285.198 88.0518 288.656 88.0518C291.885 88.0518 294.885 88.8018 297.656 90.3018C300.448 91.8018 302.719 93.8434 304.469 96.4268ZM308.219 93.9268L306.344 95.1455C304.385 92.2705 301.844 89.9997 298.719 88.333C295.615 86.6455 292.26 85.8018 288.656 85.8018C285.76 85.8018 282.99 86.3643 280.344 87.4893C277.698 88.6143 275.417 90.1351 273.5 92.0518C271.604 93.9476 270.094 96.2184 268.969 98.8643C267.844 101.51 267.281 104.281 267.281 107.177C267.281 110.073 267.844 112.843 268.969 115.489C270.094 118.135 271.604 120.416 273.5 122.333C275.417 124.229 277.698 125.739 280.344 126.864C282.99 127.989 285.76 128.552 288.656 128.552C292.281 128.552 295.646 127.708 298.75 126.021C301.854 124.333 304.385 122.052 306.344 119.177L308.156 120.521C305.99 123.687 303.188 126.198 299.75 128.052C296.333 129.885 292.635 130.802 288.656 130.802C284.385 130.802 280.438 129.75 276.812 127.646C273.188 125.521 270.312 122.646 268.188 119.021C266.083 115.396 265.031 111.448 265.031 107.177C265.031 102.906 266.083 98.958 268.188 95.333C270.312 91.708 273.188 88.8434 276.812 86.7393C280.438 84.6143 284.385 83.5518 288.656 83.5518C292.656 83.5518 296.375 84.4893 299.812 86.3643C303.25 88.2184 306.052 90.7393 308.219 93.9268ZM311.906 91.3643L310.031 92.583C307.656 89.1038 304.583 86.3538 300.812 84.333C297.062 82.3122 293.01 81.3018 288.656 81.3018C285.156 81.3018 281.802 81.9893 278.594 83.3643C275.406 84.7184 272.656 86.5518 270.344 88.8643C268.031 91.1768 266.188 93.9372 264.812 97.1455C263.458 100.333 262.781 103.677 262.781 107.177C262.781 110.677 263.458 114.031 264.812 117.239C266.188 120.427 268.031 123.177 270.344 125.489C272.656 127.802 275.406 129.646 278.594 131.021C281.802 132.375 285.156 133.052 288.656 133.052C293.01 133.052 297.073 132.031 300.844 129.989C304.615 127.948 307.688 125.187 310.062 121.708L311.875 123.083C309.292 126.833 305.958 129.812 301.875 132.021C297.792 134.208 293.385 135.302 288.656 135.302C284.844 135.302 281.198 134.552 277.719 133.052C274.26 131.573 271.271 129.583 268.75 127.083C266.25 124.562 264.25 121.573 262.75 118.114C261.271 114.635 260.531 110.989 260.531 107.177C260.531 103.364 261.271 99.7288 262.75 96.2705C264.25 92.7913 266.25 89.8018 268.75 87.3018C271.271 84.7809 274.26 82.7809 277.719 81.3018C281.198 79.8018 284.844 79.0518 288.656 79.0518C293.406 79.0518 297.823 80.1559 301.906 82.3643C305.99 84.5726 309.323 87.5726 311.906 91.3643ZM330.125 81.3018H332.375V133.052H330.125V81.3018ZM343.625 81.3018H345.875V121.802H363.875V124.052H345.875V126.302H363.875V128.552H345.875V130.802H363.875V133.052H343.625V81.3018ZM339.125 81.3018H341.375V133.052H339.125V81.3018ZM334.625 81.3018H336.875V133.052H334.625V81.3018Z" fill="white"/> <ellipse cx="140.964" cy="55.2779" rx="47.4398" ry="40.4473" fill="#EFB2D7"/> <path d="M170.865 48.0208L211.742 102.59H129.989L170.865 48.0208Z" fill="#979393"/> <path d="M139.713 37.8345L180.59 135.513H98.8363L139.713 37.8345Z" fill="#010101"/> <path d="M196.354 53.8413L265.026 148.791H127.681L196.354 53.8413Z" fill="#F2C110"/> <path d="M178.417 84.3999L208.154 98.9516L222.314 84.3999" stroke="white"/> <path d="M101.953 55.2966L161.633 149.155H42.2728L101.953 55.2966Z" fill="#332B2B"/> <path d="M80.2407 85.8553L92.0408 102.954L119.889 85.8553M125.553 66.2104L141.601 80.0346L150.097 66.2104" stroke="white"/> <path d="M182.665 70.2122L164.729 75.3053L158.593 70.2122" stroke="white"/> </svg>