<svg xmlns="http://www.w3.org/2000/svg"  viewBox="0 0 100 100" width="100px" height="100px"><path d="M19.455,88c-8.547,0-15.5-6.953-15.5-15.5v-43c0-8.547,6.953-15.5,15.5-15.5h63 c8.547,0,15.5,6.953,15.5,15.5v43c0,8.547-6.953,15.5-15.5,15.5H19.455z" opacity=".35"/><path fill="#f2f2f2" d="M17.455,86c-8.547,0-15.5-6.953-15.5-15.5v-43c0-8.547,6.953-15.5,15.5-15.5h63 c8.547,0,15.5,6.953,15.5,15.5v43c0,8.547-6.953,15.5-15.5,15.5H17.455z"/><path fill="#9aa2e6" d="M80.455,79.5h-63c-4.971,0-9-4.029-9-9v-43c0-4.971,4.029-9,9-9h63c4.971,0,9,4.029,9,9v43 C89.455,75.471,85.426,79.5,80.455,79.5z"/><path fill="#fff" d="M73.251,48.588c0.13-2.078,0.668-3.044,1.748-3.044c1.034,0,1.6,0.995,1.672,3.044H73.251z M81,49.83c0-2.321-0.51-4.157-1.474-5.445c-1.019-1.315-2.54-1.982-4.452-1.982c-3.94,0-6.409,2.918-6.409,7.59 c0,2.612,0.651,4.58,1.959,5.822c1.164,1.123,2.836,1.685,4.963,1.685c1.976,0,3.806-0.474,4.967-1.236l-0.506-3.186 c-1.146,0.625-2.472,0.964-3.954,0.964c-0.887,0-1.521-0.194-1.97-0.581c-0.494-0.413-0.77-1.079-0.868-2.031h7.677 C80.983,51.215,81,50.153,81,49.83z M62.324,52.846c-0.417,0.711-1.002,1.095-1.68,1.095c-0.455,0-0.891-0.1-1.263-0.277v-7.017 c0.808-0.832,1.536-0.927,1.778-0.927c1.191,0,1.776,1.285,1.776,3.806C62.942,50.961,62.725,52.078,62.324,52.846z M66.204,43.742 c-0.827-1.078-1.999-1.61-3.482-1.61c-1.344,0-2.534,0.57-3.65,1.766l-0.268-1.48h-4.137v20.744l4.682-0.785l0.032-5.282 c0.73,0.228,1.47,0.349,2.134,0.349c1.183,0,2.887-0.296,4.218-1.748c1.259-1.378,1.88-3.514,1.88-6.343 C67.614,46.854,67.152,44.957,66.204,43.742z M48.114,42.419h4.667v15.082h-4.667V42.419z M50.486,40.957 c1.355,0,2.453-1.121,2.453-2.478c0-1.383-1.102-2.491-2.453-2.491c-1.393,0-2.497,1.108-2.497,2.491 C47.989,39.838,49.093,40.957,50.486,40.957z M46.106,42.215c-1.33,0-2.414,0.702-2.814,1.946l-0.283-1.738h-4.095v15.079h4.684 v-9.908c0.589-0.721,1.413-0.981,2.57-0.981c0.24,0,0.483,0,0.827,0.049v-4.329C46.65,42.255,46.365,42.215,46.106,42.215z M37.08,45.905l0.581-3.488h-3.021v-4.237l-4.018,0.668l-0.583,3.569l-1.414,0.232l-0.523,3.257h1.932v6.835 c0,1.776,0.449,3.018,1.359,3.771c0.795,0.632,1.908,0.93,3.478,0.93c1.234,0,1.968-0.211,2.448-0.347v-3.697 c-0.251,0.077-0.906,0.217-1.351,0.217c-0.906,0-1.33-0.472-1.33-1.557v-6.162h2.442L37.08,45.905z M23.588,48.16 c-1.334-0.5-2.11-0.893-2.11-1.515c0-0.519,0.432-0.819,1.219-0.819c1.391,0,2.848,0.53,3.818,1.027l0.566-3.452 c-0.789-0.381-2.395-0.996-4.608-0.996c-1.585,0-2.897,0.415-3.801,1.172c-1.004,0.81-1.514,1.968-1.514,3.371 c0,2.542,1.555,3.62,4.088,4.533c1.617,0.581,2.178,0.995,2.178,1.638c0,0.608-0.517,0.97-1.5,0.97 c-1.178,0-3.097-0.585-4.391-1.327L17,56.258c1.087,0.608,3.087,1.244,5.186,1.244c1.674,0,3.061-0.396,3.967-1.144 c1.072-0.815,1.593-2.032,1.593-3.595C27.749,50.153,26.155,49.068,23.588,48.16L23.588,48.16z"/><path fill="none" stroke="#40396e" stroke-miterlimit="10" stroke-width="3" d="M80.455,79.5h-63c-4.971,0-9-4.029-9-9v-43 c0-4.971,4.029-9,9-9h63c4.971,0,9,4.029,9,9v43C89.455,75.471,85.426,79.5,80.455,79.5z"/></svg>