<svg width="179" height="197" viewBox="0 0 179 197" fill="none" xmlns="http://www.w3.org/2000/svg">
<path d="M107.331 13.4222C106.555 18.6078 100.076 30.8959 94.4767 30.0584C88.8769 29.2209 86.2767 15.5749 87.0523 10.3893C87.8278 5.20373 92.9961 1.67894 98.5959 2.51645C104.196 3.35396 108.106 8.23663 107.331 13.4222Z" fill="url(#paint0_linear_331_31)"/>
<path d="M12.2264 179.345C41.9327 136.761 60.2345 109.711 66.4689 50.2941C67.0094 45.1427 71.2823 41.1194 76.4618 41.0742L111.599 40.7675C116.416 40.7255 120.586 44.0866 121.655 48.7838C126.424 69.7421 141.161 127.67 168.287 177.779C172.41 185.394 167.053 195 158.393 195L20.3942 195C12.3333 195 7.61453 185.957 12.2264 179.345Z" fill="black" stroke="black"/>
<path d="M50.3373 103L58.9156 124L78.2168 103L97.518 124L112.53 103L125.398 124L139.337 103" stroke="white" stroke-width="3"/>
<path d="M142.522 23.6756C138.483 28.1562 125.014 36.3246 120.86 32.5794C116.705 28.8342 123.438 14.5937 127.477 10.113C131.517 5.63231 138.159 5.03608 142.313 8.78129C146.468 12.5265 146.561 19.1949 142.522 23.6756Z" fill="url(#paint1_linear_331_31)"/>
<path d="M72.1098 9.03342C75.8976 14.0224 82.0306 29.0326 77.9122 32.1594C73.7938 35.2862 60.9835 25.3455 57.1957 20.3566C53.408 15.3676 53.676 8.78847 57.7944 5.66166C61.9128 2.53486 68.3221 4.04445 72.1098 9.03342Z" fill="url(#paint2_linear_331_31)"/>
<defs>
<linearGradient id="paint0_linear_331_31" x1="98.5959" y1="2.51645" x2="94.4767" y2="30.0584" gradientUnits="userSpaceOnUse">
<stop stop-color="#A400F1"/>
<stop offset="1" stop-color="#16EB84" stop-opacity="0"/>
</linearGradient>
<linearGradient id="paint1_linear_331_31" x1="142.313" y1="8.78129" x2="120.86" y2="32.5794" gradientUnits="userSpaceOnUse">
<stop stop-color="#A400F1"/>
<stop offset="1" stop-color="#16EB84" stop-opacity="0"/>
</linearGradient>
<linearGradient id="paint2_linear_331_31" x1="57.7944" y1="5.66166" x2="77.9122" y2="32.1594" gradientUnits="userSpaceOnUse">
<stop stop-color="#A400F1"/>
<stop offset="1" stop-color="#16EB84" stop-opacity="0"/>
</linearGradient>
</defs>
</svg>
